<svg width="536.000000" height="103.000000" viewBox="0 0 536 103" fill="none" xmlns="http://www.w3.org/2000/svg" xmlns:xlink="http://www.w3.org/1999/xlink">
	<desc>
			Created with Pixso.
	</desc>
	<defs/>
	<path id="Combined Shape" d="M3.35449 10.4282C1.6543 10.0525 0.367676 8.54974 0 7.04694L21 7L21 7.04694C20.6323 8.54974 19.3916 9.95856 17.6455 10.4282L12.407 10.4282L12.1313 10.5221L12.1313 24L8.86865 24L8.86865 10.5221L8.59302 10.4282L3.35449 10.4282ZM44.948 10.4188L32.4307 10.4188C30.6689 10.0441 29.3708 8.4986 29 7L48.3325 7C48.0078 8.4986 46.7097 10.0909 44.948 10.4188ZM113.098 10.4188L125.616 10.4188C127.377 10.0909 128.629 8.4986 129 7L109.714 7C110.085 8.4986 111.383 10.0441 113.098 10.4188ZM60.9888 10.3719L72.5791 10.3719C74.3408 9.85675 75.7778 8.4986 76.1489 7.04681L57.79 7.04681L57.79 17.0688L72.8108 17.0688L72.8108 20.5812L61.0352 20.5812C59.1809 21.0964 57.6045 22.3609 56.8164 24L76.0562 24L76.0562 13.7438L61.0352 13.7438L60.9888 10.3719ZM103.223 20.6749C102.853 22.0799 101.972 23.2975 100.349 24L85.3281 24L85.3281 7.04681L88.6199 7.04681L88.6199 20.6749L103.223 20.6749ZM32.4307 17.1157L44.948 17.1157C46.7097 16.7879 48.0078 15.1956 48.3325 13.697L29 13.697C29.3708 15.1956 30.6689 16.741 32.4307 17.1157ZM110.224 24L110.224 13.7438L128.583 13.7438L128.583 24L125.337 24L125.337 17.1625L113.469 17.1625L113.469 24L110.224 24ZM44.948 24L32.4307 24C30.6689 23.6722 29.3708 22.0799 29 20.5812L48.3325 20.5812C48.0078 22.0799 46.7097 23.6722 44.948 24Z" clip-rule="evenodd" fill="#FFFFFF" fill-opacity="1.000000" fill-rule="evenodd"/>
	<path id="Combined Shape" d="M206 15L191 15L191 0L206 0L206 15ZM207 15L222 15L222 0L207 0L207 15ZM336 11.5398L336 14.0611L332.857 14.0611L332.857 20.2661C332.857 21.0613 333 21.6298 333.282 21.9549C333.562 22.277 334.011 22.4403 334.62 22.4403C334.781 22.4403 334.99 22.4052 335.24 22.3351C335.489 22.2664 335.702 22.1739 335.872 22.0607L336 21.9766L336 24.5211L335.959 24.5455C335.771 24.6523 335.454 24.7523 334.987 24.8524C334.528 24.95 334.079 24.9997 333.653 24.9997C331.056 24.9997 329.74 23.5909 329.74 20.811L329.74 14.0611L325.08 14.0611L325.08 24.6828L321.938 24.6828L321.938 14.0611L319.749 14.0611L319.749 11.5398L321.938 11.5398L321.938 9.72083C321.938 8.80688 322.14 7.98102 322.54 7.26599C322.94 6.55005 323.512 5.987 324.239 5.59259C324.966 5.19873 325.799 5 326.715 5C327.443 5 328.03 5.07782 328.461 5.2323L328.516 5.25226L328.516 7.90753L328.4 7.85596C327.937 7.65051 327.478 7.54639 327.034 7.54639C326.416 7.54639 325.932 7.7439 325.594 8.13232C325.253 8.52551 325.08 9.11505 325.08 9.88544L325.08 11.54L329.74 11.54L329.74 8.57001L329.798 8.55243L332.751 7.65265L332.856 7.62018L332.856 11.5398L336 11.5398ZM255.181 6.45758C255.547 6.11432 255.993 5.9411 256.504 5.9411C257.041 5.9411 257.495 6.11945 257.853 6.47144C258.211 6.8241 258.393 7.25305 258.393 7.74664C258.393 8.25024 258.206 8.67554 257.838 9.01117C257.472 9.34473 257.023 9.51404 256.504 9.51404C255.984 9.51404 255.537 9.34473 255.176 9.01062C254.811 8.67554 254.627 8.25006 254.627 7.74664C254.627 7.23517 254.813 6.80182 255.181 6.45758ZM248.759 24.6826L248.759 10.5703L248.657 10.5703L243.036 24.6826L240.789 24.6826L235.079 10.5689L234.977 10.5689L234.977 24.6824L232 24.6824L232 6.34344L236.562 6.34344L241.97 19.9652L247.543 6.34344L251.927 6.34344L251.927 24.6826L248.759 24.6826ZM263.506 12.1269C264.586 11.5273 265.856 11.2232 267.28 11.2232C267.835 11.2232 268.418 11.2853 269.015 11.4086C269.615 11.5322 270.097 11.6951 270.451 11.8925L270.493 11.9161L270.493 14.9005L270.363 14.8063C269.423 14.1267 268.428 13.7827 267.408 13.7827C266.216 13.7827 265.236 14.1854 264.497 14.9793C263.756 15.7756 263.38 16.8549 263.38 18.1873C263.38 19.5113 263.74 20.5635 264.452 21.3128C265.161 22.0612 266.139 22.4407 267.357 22.4407C267.796 22.4407 268.296 22.3443 268.844 22.1536C269.394 21.9628 269.906 21.6979 270.363 21.366L270.493 21.2712L270.493 24.1035L270.452 24.1268C269.443 24.7061 268.183 24.9999 266.708 24.9999C265.444 24.9999 264.303 24.7234 263.315 24.1783C262.326 23.6324 261.544 22.8454 260.992 21.8394C260.441 20.835 260.161 19.6954 260.161 18.4537C260.161 17.036 260.449 15.7648 261.017 14.6766C261.586 13.5857 262.423 12.7278 263.506 12.1269ZM282.568 13.1107C283.8 11.8582 285.528 11.2232 287.705 11.2232C289.754 11.2232 291.379 11.8306 292.535 13.029C293.691 14.2268 294.276 15.8943 294.276 17.9844C294.276 20.1003 293.652 21.8173 292.421 23.0858C291.189 24.3555 289.495 24.9995 287.386 24.9995C285.362 24.9995 283.726 24.3884 282.524 23.1821C281.322 21.9763 280.712 20.3219 280.712 18.2632C280.712 16.0967 281.337 14.3633 282.568 13.1107ZM297.174 12.3438C298.109 11.6003 299.334 11.2232 300.814 11.2232C301.267 11.2232 301.787 11.2767 302.361 11.3828C302.938 11.4896 303.413 11.6212 303.773 11.775L303.822 11.7961L303.822 14.6544L303.694 14.567C303.304 14.3026 302.836 14.0864 302.304 13.9249C301.771 13.7635 301.235 13.6811 300.712 13.6811C300.148 13.6811 299.698 13.8079 299.375 14.0571C299.054 14.3051 298.898 14.6113 298.898 14.9935C298.898 15.4247 299.024 15.7651 299.274 16.0059C299.532 16.2551 300.159 16.5798 301.137 16.9708C302.365 17.464 303.245 18.0219 303.753 18.6296C304.263 19.2424 304.522 20.0021 304.522 20.888C304.522 22.116 304.041 23.1201 303.092 23.8732C302.148 24.6211 300.854 25 299.248 25C298.728 25 298.129 24.9309 297.469 24.7952C296.809 24.6595 296.248 24.4871 295.803 24.2827L295.756 24.2606L295.756 21.2473L295.886 21.3405C296.423 21.7247 297.017 22.0244 297.645 22.2289C298.278 22.4367 298.856 22.5421 299.363 22.5421C300.729 22.5421 301.393 22.1124 301.393 21.2294C301.393 20.9193 301.327 20.668 301.198 20.4844C301.065 20.2968 300.83 20.1041 300.499 19.9125C300.16 19.7169 299.626 19.4688 298.91 19.1755C298.059 18.8112 297.417 18.4531 297 18.1113C296.581 17.7666 296.266 17.356 296.062 16.8896C295.859 16.4247 295.756 15.8766 295.756 15.2596C295.756 14.0726 296.233 13.0917 297.174 12.3438ZM307.736 13.1107C308.968 11.8582 310.696 11.2232 312.872 11.2232C314.921 11.2232 316.547 11.8306 317.703 13.029C318.858 14.2268 319.444 15.8943 319.444 17.9844C319.444 20.1003 318.82 21.8173 317.588 23.0858C316.356 24.3555 314.663 24.9995 312.554 24.9995C310.53 24.9995 308.894 24.3884 307.691 23.1821C306.489 21.9763 305.88 20.321 305.88 18.2632C305.88 16.0967 306.504 14.3633 307.736 13.1107ZM275.943 11.5398L275.943 13.8159L275.976 13.8159C276.266 13.0773 276.645 12.4849 277.17 12.053C277.768 11.5615 278.466 11.3118 279.245 11.3118C279.763 11.3118 280.172 11.3735 280.461 11.4958L280.511 11.5173L280.511 14.6342L280.381 14.54C280.237 14.4368 279.993 14.3387 279.657 14.2485C279.317 14.1577 279.003 14.1117 278.724 14.1117C277.899 14.1117 277.223 14.4669 276.716 15.1678C276.203 15.8772 275.943 16.8163 275.943 17.9595L275.943 24.6826L272.839 24.6826L272.839 11.5398L275.943 11.5398ZM254.92 11.54L258.024 11.54L258.024 24.6826L254.92 24.6826L254.92 11.54ZM287.564 22.4407C286.424 22.4407 285.525 22.064 284.891 21.3221C284.254 20.5764 283.931 19.5135 283.931 18.1624C283.931 16.7688 284.254 15.678 284.892 14.9191C285.526 14.1653 286.416 13.7827 287.539 13.7827C288.628 13.7827 289.496 14.1481 290.117 14.8694C290.741 15.5944 291.058 16.6764 291.058 18.0863C291.058 19.5135 290.76 20.6098 290.173 21.3431C289.589 22.071 288.712 22.4407 287.564 22.4407ZM312.732 22.4407C311.592 22.4407 310.692 22.064 310.059 21.3221C309.421 20.5764 309.098 19.5132 309.098 18.1624C309.098 16.7688 309.421 15.678 310.059 14.9191C310.693 14.1653 311.584 13.7827 312.707 13.7827C313.796 13.7827 314.663 14.1481 315.285 14.8694C315.909 15.5944 316.226 16.6764 316.226 18.0863C316.226 19.5135 315.928 20.6098 315.34 21.3431C314.757 22.071 313.879 22.4407 312.732 22.4407ZM206 31L191 31L191 16L206 16L206 31ZM207 31L222 31L222 16L207 16L207 31Z" clip-rule="evenodd" fill="#FFFFFF" fill-opacity="1.000000" fill-rule="evenodd"/>
	<path id="Combined Shape" d="M414.326 2L408 20.0009L408 20.0016L410.672 20.0016L413.765 11.3377L414.608 11.3377C415.169 11.3377 415.169 11.7542 415.076 12.2178L412.311 20.0016L415.076 20.0016C415.076 20.0016 417.466 13.423 417.888 12.0328C418.309 10.6426 417.466 9.94751 415.826 9.94751L414.232 9.94751L417.044 2L414.326 2ZM435.457 2L418.851 2L418.097 4.02118C424.681 4.33582 429.915 9.32367 429.915 15.4299C429.915 21.1057 425.393 25.8147 419.468 26.7038L418.757 28.8727L435.457 28.8727C436.393 28.8764 437.292 28.5007 437.955 27.8285C438.618 27.1564 438.99 26.2432 438.991 25.2905L438.991 5.57001C438.991 3.58081 437.408 2 435.457 2ZM413.463 26.4409C408.571 24.838 405.054 20.4277 405.054 15.4307C405.054 11.0378 408.109 6.60461 412.186 4.40057L413.033 2.00073L399.525 2.00073C397.577 2.00372 396 3.61224 396 5.59515L396 25.2639C396 27.2477 397.578 28.8727 399.525 28.8727L412.61 28.8727L413.463 26.4409ZM535.317 2.78625C534.883 2.33405 534.285 2.08362 533.664 2.09369C533.021 2.09369 532.474 2.32532 532.02 2.78625C531.583 3.21796 531.337 3.81097 531.337 4.42981C531.337 4.44086 531.338 4.45197 531.338 4.46307C531.338 5.1236 531.563 5.68506 532.014 6.14905C532.467 6.6153 533.017 6.84766 533.664 6.84766C534.31 6.84766 534.862 6.6145 535.317 6.14905C535.754 5.71448 536 5.1192 536 4.49835C536 4.48663 536 4.47485 536 4.46307C536 3.80713 535.771 3.24792 535.317 2.78625ZM480.353 11.1757C480.496 11.7052 481.179 12.787 481.888 12.787L481.888 12.7878L483.304 12.7878L486.704 2.15619L484.295 2.15619L482.076 9.42041L479.716 2.20416L477.451 2.20416L475.09 9.42041L472.87 2.15619L470.463 2.15619L473.342 11.1529C473.484 11.6816 474.098 12.7878 474.807 12.7878L476.27 12.7878L478.583 5.61957L480.353 11.1757ZM526.897 12.7833L526.897 4.37012L530.412 4.37012L530.412 2.15845L521.023 2.15845L521.023 4.37012L524.491 4.37012L524.491 12.7833L526.897 12.7833ZM515.782 12.7764L515.782 4.37469L519.294 4.37469L519.294 2.16534L509.914 2.16534L509.914 4.37469L513.379 4.37469L513.379 12.7764L515.782 12.7764ZM469.104 2.16687L461.093 2.16687C460.009 2.16687 459.444 2.79077 459.444 3.75153L459.444 11.3845C459.444 12.0084 460.009 12.7764 460.952 12.7764L469.104 12.7764L469.104 10.5685L461.847 10.5685L461.847 8.55267L467.879 8.55267L467.879 6.34485L461.847 6.34485L461.847 4.37695L469.104 4.37695L469.104 2.16687ZM508.153 2.17139L500.148 2.17139C499.063 2.17139 498.499 2.79462 498.499 3.75452L498.499 11.3799C498.499 12.0038 499.063 12.7711 500.006 12.7711L508.153 12.7711L508.153 10.5648L500.901 10.5648L500.901 8.55042L506.929 8.55042L506.929 6.34406L500.901 6.34406L500.901 4.37695L508.153 4.37695L508.153 2.17139ZM445.914 2.17371L445.914 12.7687L448.315 12.7687L448.315 8.54962L454.575 8.54962L454.575 12.7687L456.976 12.7687L456.976 2.17371L454.575 2.17371L454.575 6.34485L448.315 6.34485L448.315 2.17371L445.914 2.17371ZM488.446 2.17749L488.446 11.1841C488.446 11.9985 489.059 12.765 490.141 12.765L497.199 12.765L497.199 10.5609L490.847 10.5609L490.847 2.17749L488.446 2.17749ZM533.664 6.52081C534.199 6.52985 534.714 6.31177 535.084 5.91895C535.475 5.51746 535.67 5.03217 535.67 4.46228C535.67 3.89703 535.475 3.41473 535.085 3.01556C534.694 2.61481 534.219 2.4137 533.665 2.4137C533.111 2.4137 532.638 2.61481 532.247 3.01556C531.857 3.41473 531.663 3.89703 531.663 4.46228C531.662 4.47485 531.662 4.48743 531.662 4.49994C531.662 5.03253 531.871 5.5437 532.244 5.91895C532.614 6.31226 533.129 6.5304 533.664 6.52081ZM424.832 9.90179L420.459 9.90179L414.157 28L416.838 28L419.632 19.9987L422.105 19.9987C424.08 19.9987 424.41 19.2542 424.785 18.184L426.808 12.5074C427.513 10.5999 426.148 9.90179 424.832 9.90179ZM422.058 17.8117C422.105 17.5323 424.08 11.9959 424.08 11.9959C424.221 11.6237 424.268 11.2979 423.845 11.2979L422.669 11.2979L420.119 18.6026L421.305 18.6026C421.775 18.6026 422.011 18.0911 422.058 17.8117ZM464.164 18.3729L461.049 18.3729L456.188 29L458.736 29L459.586 27.0771L465.616 27.0771L466.476 29L468.93 29L464.164 18.3729ZM516.525 24.8647C517.092 24.3832 517.469 23.6625 517.469 21.7388C517.469 19.5751 516.006 18.3729 514.308 18.3729L507.37 18.3729L507.37 28.9993L509.73 28.9993L509.73 25.8734L513.787 25.8734C514.732 25.8734 515.204 26.6428 515.204 27.0756L515.204 28.9985L517.469 28.9985L517.469 26.7868C517.469 26.1621 517.28 25.2494 516.525 24.8647ZM482.61 18.3829L482.61 28.9901L485.015 28.9901L485.015 24.5737L486.24 24.5737L490.715 28.9901L492.505 28.9901L492.505 27.5982L488.312 23.3745L493.354 18.3829L490.15 18.3829L486.051 22.3666L485.015 22.3666L485.015 18.3829L482.61 18.3829ZM453.493 18.3889L445.914 18.3889L445.914 28.984L448.315 28.984L448.315 26.0112L453.492 26.0112C454.905 26.0112 456.505 25.1968 456.505 22.2241L456.505 22.2222C456.505 19.2038 454.764 18.3889 453.493 18.3889ZM530.47 21.6497C530.47 19.7808 529.529 18.3912 527.553 18.3912L519.838 18.3912L519.838 28.981L527.506 28.981C530.283 28.981 530.47 26.2497 530.47 24.7641L530.47 21.6497ZM500.812 18.3935L497.708 18.3935L493.522 27.4938L493.522 28.9786L495.404 28.9786L496.25 27.0626L502.261 27.0626L503.118 28.9786L505.565 28.9786L500.812 18.3935ZM469.984 20.887L469.984 26.4851C469.984 27.5853 470.642 28.9733 472.428 28.9733L478.162 28.9733C479.477 28.9733 480.557 28.0645 480.557 26.4851L480.557 25.5283L478.208 25.5283C478.208 26.0067 478.113 26.7723 477.22 26.7723L473.132 26.7723C472.85 26.7723 472.381 26.5811 472.381 25.8155L472.381 21.6055C472.381 21.6055 472.373 21.5542 472.373 21.4754C472.373 21.2137 472.457 20.6486 473.178 20.6486L477.314 20.6486C477.69 20.6486 478.112 21.3655 478.161 21.8439L480.556 21.8439L480.556 20.9358C480.556 20.0269 479.665 18.4468 478.161 18.3996L472.38 18.3996C471.252 18.3996 469.984 19.6917 469.984 20.887ZM462.605 20.3439L460.577 24.8647L464.588 24.8647L462.605 20.3439ZM499.26 20.3575L497.238 24.8601L501.274 24.8601L499.26 20.3575ZM509.729 23.6625L514.07 23.6625C514.968 23.6625 515.203 22.5563 515.203 22.0283C515.203 21.498 514.968 20.5853 513.787 20.5853L509.729 20.5853L509.729 23.6625ZM448.315 23.8065L452.928 23.8065C453.964 23.8065 453.964 22.704 453.964 22.2249C453.964 21.7457 453.964 20.5945 452.787 20.5945L448.315 20.5945L448.315 23.8065ZM528.071 25.0521L528.071 22.0329C528.073 22.0011 528.074 21.9691 528.074 21.937C528.074 21.2921 527.615 20.596 526.942 20.596L522.236 20.596L522.236 26.7769L526.753 26.7769C527.6 26.7769 528.071 25.9617 528.071 25.0521Z" clip-rule="evenodd" fill="#FFFFFF" fill-opacity="1.000000" fill-rule="evenodd"/>
	<path id="Combined Shape" d="M231.103 86.0795L235.303 86.0795L235.303 91.9135C233.992 92.3299 232.338 92.5583 230.618 92.5583C223.646 92.5583 219.55 86.6547 219.55 80.889C219.55 75.2342 223.255 71.2676 228.426 71.2676C231.697 71.2676 233.601 72.3638 235.304 73.8906L235.304 75.794L238.498 72.6359C236.478 71.2844 233.553 70 229.372 70C220.195 70 216 76.493 216 81.8292C216 89.4245 221.594 94 228.624 94C232.033 94 235.059 93.4855 238.555 92.5234L238.555 86.496C238.555 86.1879 238.692 85.9764 238.897 85.7906L240 84.6997L232.509 84.6997L231.103 86.0795ZM297.03 93L290.663 93L291.83 91.8458C292.021 91.6494 292.11 91.4581 292.11 91.177L292.11 71.4027L290 71.4027L291.413 70L296.843 70L295.694 71.1398C295.566 71.2623 295.39 71.4549 295.39 71.8309L295.39 90.9208C295.39 91.3294 295.682 91.751 296.174 91.8109L298 92.0372L297.03 93ZM241 85.6061C241 81.6897 244.219 78 249.413 78L249.413 78.0013C253.97 78.0013 257 81.6061 257 85.3181C257 89.3031 253.899 93 248.846 93C243.593 93 241 88.9865 241 85.6061ZM259 85.6061C259 81.6897 262.219 78 267.413 78L267.413 78.0013C271.97 78.0013 275 81.6061 275 85.3181C275 89.3031 271.899 93 266.846 93C261.593 93 259 88.9865 259 85.6061ZM276.66 84.1281C276.66 80.8954 279.032 78 283.416 78L283.416 78.0002L289.913 78.0002L288.595 79.3755L286.84 79.3755C288.278 80.6501 288.908 82.0112 288.908 83.5933C288.908 85.8994 287.661 87.0548 286.777 87.8355C286.616 87.9855 286.185 88.2983 285.936 88.5723C285.795 88.7402 285.409 89.185 285.409 89.8571C285.409 90.3264 285.559 90.7256 286.333 91.3525C288.962 93.4077 290 94.5995 290 96.7736C290 99.8576 287.19 103 281.764 103C277.181 103 275 100.662 275 98.2858C275 95.5727 277.411 93.0483 283.411 92.6669C282.776 91.9172 282.478 91.4301 282.478 90.5626C282.479 89.9745 282.719 89.3657 282.719 89.3657L281.837 89.3657C278.351 89.3657 276.66 86.5892 276.66 84.1281ZM305.421 78C301.823 78 298 80.5765 298 85.2021C298 89.0224 300.742 93 305.866 93C307.144 93 308.196 92.8456 309.182 92.4205C310.24 91.9631 311.257 91.2202 312 90.2866C310.598 90.9509 309.454 91.3872 307.935 91.3872C305.048 91.3872 302.264 89.4302 301.29 85.8329L311.489 81.9601C310.9 79.987 309.239 78 305.422 78L305.421 78ZM282.207 79.0289C283.002 79.0289 283.666 79.3223 284.367 79.9311C285.146 80.6627 286.388 82.6287 286.388 85.0614C286.388 87.6866 284.433 88.4053 283.375 88.4053C282.857 88.4053 282.236 88.2541 281.711 87.8792C280.544 87.0896 279.385 84.9877 279.385 82.4866C279.385 80.2297 280.674 79.0289 282.207 79.0289ZM308.081 81.7182C308.081 80.5503 306.685 79.0582 304.754 79.0582C303.478 79.0582 300.891 79.957 300.891 83.3187C300.891 84.1202 301.061 84.8618 301.061 84.8618L307.33 82.4798C307.829 82.2953 308.081 82.0959 308.081 81.7182ZM248.551 79.0757C252.213 79.0757 253.844 83.7138 253.844 87.0219C253.844 91.9418 250.047 92.039 249.594 92.039C247.856 92.039 246.642 91.0182 245.733 89.6794C244.933 88.4456 244.15 86.1531 244.15 83.9133C244.15 81.6821 244.902 80.5927 246.084 79.7912C247.051 79.1904 247.956 79.0757 248.55 79.0757L248.551 79.0757ZM266.551 79.0757C270.213 79.0757 271.844 83.7138 271.844 87.0219C271.844 91.9418 268.047 92.039 267.594 92.039C265.856 92.039 264.642 91.0182 263.733 89.6794C262.933 88.4456 262.15 86.1531 262.15 83.9133C262.15 81.6821 262.902 80.5927 264.084 79.7912C265.051 79.1904 265.956 79.0757 266.55 79.0757L266.551 79.0757ZM284.517 93.6921C284.517 93.6921 284.277 93.6635 283.942 93.6635C279.441 93.7293 277.8 95.5004 277.8 97.5583C277.8 100.043 280.194 101.564 283.327 101.564C286.18 101.564 287.942 100.01 287.942 98.0287C287.942 96.5873 287.142 95.7782 285.858 94.7196C285.307 94.2802 284.517 93.6921 284.517 93.6921Z" clip-rule="evenodd" fill="#FFFFFF" fill-opacity="1.000000" fill-rule="evenodd"/>
	<path id="Shape" d="M65.21 89.0599L56.554 89.0599L58.4656 92.0298L67.2295 92.0298L69.0334 94.9998L72.8564 94.9998L62.5984 79.0078C62.1675 78.3762 61.427 78 60.6328 78C59.8115 78 59.071 78.3898 58.627 79.0347L48.4092 94.9998L52.2322 94.9998L60.6328 81.709L65.21 89.0599ZM48.3013 83.8591C48.3013 87.0037 45.7437 89.5435 42.5933 89.5435L42.5935 89.5439L41.1125 89.5439L47.6282 95L42.9163 95L33.2317 86.5741L42.3779 86.5873C43.8857 86.5873 45.0972 85.3644 45.0972 83.8596C45.0972 82.3545 43.8857 81.1313 42.3779 81.1313L31.6431 81.1313L31.6431 95L28.3999 95L28.3999 78.1609L42.5933 78.1609C45.7437 78.1609 48.3013 80.7142 48.3013 83.8591ZM119.301 92.0298L131 92.0298L129.088 94.9995L119.086 94.9995C114.428 94.9995 110.645 91.2368 110.645 86.5869C110.645 81.9371 114.428 78.1609 119.086 78.1609L130.744 78.1609L128.82 81.1313L119.302 81.1313C116.811 81.1313 114.698 82.8109 114.051 85.0955L129.829 85.0955L127.917 88.0654L114.051 88.0654C114.697 90.3635 116.811 92.0297 119.301 92.0298ZM96.2673 92.0296L96.2673 78.1611L93.0229 78.1611L93.0229 93.3871C93.0229 93.8036 93.1846 94.207 93.4941 94.516C93.8037 94.8251 94.2209 94.9998 94.6787 94.9998L109.474 94.9998L111.385 92.0298L96.2671 92.0298L96.2673 92.0296ZM8.43579 94.9998C3.77905 95 0 91.2371 0 86.5873C0 81.9374 3.77905 78.1614 8.43579 78.1614L18.2402 78.1614C22.8979 78.1614 26.6741 81.9374 26.6741 86.5873C26.6741 91.2371 22.8979 94.9998 18.24 94.9998L8.43579 94.9998ZM79.6279 94.9998C74.9705 94.9998 71.1873 91.2371 71.1873 86.5873C71.1873 81.9374 74.9705 78.1614 79.6279 78.1614L91.2732 78.1614L89.3748 81.1313L79.8435 81.1313C76.8279 81.1313 74.3779 83.5771 74.3779 86.5873C74.3779 89.5974 76.8279 92.0298 79.8435 92.0298L91.5422 92.0298L89.6304 94.9998L79.6279 94.9998ZM23.4824 86.5871C23.4824 89.5974 21.0391 92.0298 18.0222 92.0298L8.65234 92.0298C5.63672 92.0298 3.19214 89.5974 3.19214 86.5873C3.19214 83.5771 5.63672 81.1313 8.65259 81.1313L18.0222 81.1313C21.0391 81.1313 23.4824 83.5771 23.4824 86.5871Z" clip-rule="evenodd" fill="#FFFFFF" fill-opacity="1.000000" fill-rule="evenodd"/>
	<path id="Combined Shape" d="M413.541 74L413.541 77.5014L414.23 77.458C423.086 77.1542 428.871 84.7791 428.871 84.7791C428.871 84.7791 422.239 92.9104 415.335 92.9104C414.732 92.9104 414.144 92.8525 413.555 92.7512L413.555 94.9215C414.043 94.9794 414.545 95.0228 415.033 95.0228C421.464 95.0228 426.115 91.7095 430.622 87.803C431.368 88.4107 434.426 89.872 435.057 90.5086C430.78 94.1258 420.804 97.0339 415.148 97.0339C414.603 97.0339 414.086 97.005 413.569 96.9471L413.569 100L438 100L438 74L413.541 74ZM402.99 85.1987C402.99 85.1987 406.502 79.9681 413.541 79.4124L413.541 81.7551C408.804 82.276 405.947 85.4591 405.947 85.4591C405.947 85.4591 407.598 91.6951 413.541 92.7657L413.541 90.9138C410.196 89.7708 409.091 85.8208 409.091 85.8208C409.091 85.8208 411.043 83.4769 413.526 83.7808L413.541 83.7808L413.541 81.7551C413.971 81.7117 414.402 81.6828 414.833 81.6973C418.909 81.6973 421.335 84.8948 421.335 84.8948L418.019 87.7017C416.541 85.1987 416.038 84.0991 413.555 83.7952L413.555 90.9138C414.158 91.1163 414.79 91.2176 415.435 91.2176C420.273 91.2176 424.78 84.9093 424.78 84.9093C424.78 84.9093 420.603 79.1797 414.23 79.3823C414.005 79.3823 413.78 79.3962 413.555 79.4103L413.555 77.5014C405.746 78.138 399 84.7935 399 84.7935C399 84.7935 402.818 95.9343 413.541 96.9471L413.541 94.9215C405.675 93.9377 402.99 85.1987 402.99 85.1987ZM413.555 79.4103L413.555 79.4113C413.55 79.4116 413.545 79.412 413.541 79.4124L413.541 79.4113L413.555 79.4103ZM445 95.9856L445 79L453.635 79C457.823 79 462.111 79.9061 462.111 86.6083L462.111 95.9856L457.404 95.9856L457.404 88.2335C457.404 85.8604 457.101 84.5516 456.335 83.7462C455.743 83.1133 454.877 82.8113 453.635 82.8113L449.852 82.7969L449.852 95.9856L445 95.9856ZM471.887 92.4763L475.901 79.0287L480.811 79.0287L475.266 96L468.335 96L462.848 79.0287L468.046 79.0287L471.887 92.4763ZM482.833 79.0287L487.641 79.0287L487.641 96L482.833 96L482.833 79.0287ZM490.587 96L490.587 79.0287L497.33 79.0287C501.171 79.0287 503.741 79.489 505.503 81.8621C506.499 83.1853 507.062 85.3139 507.062 87.7014C507.062 90.3046 506.398 92.692 505.359 93.7708C503.9 95.3096 502.543 96 498.384 96L490.587 96ZM509.315 96L509.315 79.0287L514.124 79.0287L514.124 96L509.315 96ZM516.087 95.9856L522.802 79.0287L529.228 79.0287L536 95.9713L530.845 95.9713L529.834 92.9797L521.892 92.9797L520.824 95.9856L516.087 95.9856ZM525.921 82.121L528.838 90.0601L522.917 90.0601L525.921 82.121ZM495.352 82.7106L497.417 82.7106C500.42 82.7106 502.355 84.0482 502.355 87.5287C502.355 91.0093 500.42 92.3613 497.417 92.3613L495.352 92.3613L495.352 82.7106Z" clip-rule="evenodd" fill="#FFFFFF" fill-opacity="1.000000" fill-rule="evenodd"/>
</svg>
