<svg width="417.649414" height="658.861084" viewBox="0 0 417.649 658.861" fill="none" xmlns="http://www.w3.org/2000/svg" xmlns:xlink="http://www.w3.org/1999/xlink">
	<desc>
			Created with Pixso.
	</desc>
	<defs>
		<filter id="filter_0_4914_dd" x="0.000000" y="0.000000" width="417.649414" height="658.861084" filterUnits="userSpaceOnUse" color-interpolation-filters="sRGB">
			<feFlood flood-opacity="0" result="BackgroundImageFix"/>
			<feColorMatrix in="SourceAlpha" type="matrix" values="0 0 0 0 0 0 0 0 0 0 0 0 0 0 0 0 0 0 127 0" result="hardAlpha"/>
			<feOffset dx="25" dy="25"/>
			<feGaussianBlur stdDeviation="26.6667"/>
			<feComposite in2="hardAlpha" operator="out" k2="-1" k3="1"/>
			<feColorMatrix type="matrix" values="0 0 0 0 0.21176 0 0 0 0 0.32549 0 0 0 0 0.41961 0 0 0 0.3 0"/>
			<feBlend mode="normal" in2="BackgroundImageFix" result="effect_dropShadow_1"/>
			<feBlend mode="normal" in="SourceGraphic" in2="effect_dropShadow_1" result="shape"/>
		</filter>
		<clipPath id="clip0_4922">
			<rect id="Screen" width="233.000000" height="465.000000" transform="translate(67.506348 66.875000)" fill="white" fill-opacity="0"/>
		</clipPath>
		<filter id="filter_0_4928_dd" x="69.432129" y="216.430542" width="248.000000" height="117.000000" filterUnits="userSpaceOnUse" color-interpolation-filters="sRGB">
			<feFlood flood-opacity="0" result="BackgroundImageFix"/>
			<feColorMatrix in="SourceAlpha" type="matrix" values="0 0 0 0 0 0 0 0 0 0 0 0 0 0 0 0 0 0 127 0" result="hardAlpha"/>
			<feMorphology radius="-10" in="" result="BackgroundImageFix"/>
			<feOffset dx="10" dy="10"/>
			<feGaussianBlur stdDeviation="8.33333"/>
			<feComposite in2="hardAlpha" operator="out" k2="-1" k3="1"/>
			<feColorMatrix type="matrix" values="0 0 0 0 0.21176 0 0 0 0 0.32549 0 0 0 0 0.41961 0 0 0 0.25 0"/>
			<feBlend mode="normal" in2="BackgroundImageFix" result="effect_dropShadow_1"/>
			<feBlend mode="normal" in="SourceGraphic" in2="effect_dropShadow_1" result="shape"/>
		</filter>
		<clipPath id="clip0_4929">
			<rect id="Group 28" width="187.000000" height="11.000000" transform="translate(90.432129 237.430542)" fill="white" fill-opacity="0"/>
		</clipPath>
		<clipPath id="clip0_4927">
			<rect id="Group 29" width="218.000000" height="87.000000" transform="translate(74.432129 221.430542)" fill="white" fill-opacity="0"/>
		</clipPath>
		<linearGradient id="paint_linear_0_4916_0" x1="62.446777" y1="54.430542" x2="62.446777" y2="66.754486" gradientUnits="userSpaceOnUse">
			<stop stop-color="#454545"/>
			<stop offset="0.226279" stop-color="#999999"/>
			<stop offset="1.000000" stop-color="#FFFFFF"/>
		</linearGradient>
		<linearGradient id="paint_linear_0_4917_0" x1="312.535522" y1="140.178406" x2="303.074585" y2="140.178406" gradientUnits="userSpaceOnUse">
			<stop stop-color="#FFFFFF" stop-opacity="0.000000"/>
			<stop offset="0.222178" stop-color="#BABABA"/>
			<stop offset="0.546780" stop-color="#FFFFFF" stop-opacity="0.000000"/>
			<stop offset="1.000000" stop-color="#FFFFFF" stop-opacity="0.000000"/>
		</linearGradient>
		<linearGradient id="paint_linear_0_4918_0" x1="55.000107" y1="139.916290" x2="64.476181" y2="139.916290" gradientUnits="userSpaceOnUse">
			<stop stop-color="#FFFFFF" stop-opacity="0.000000"/>
			<stop offset="0.222178" stop-color="#BABABA"/>
			<stop offset="0.546780" stop-color="#FFFFFF" stop-opacity="0.000000"/>
			<stop offset="1.000000" stop-color="#FFFFFF" stop-opacity="0.000000"/>
		</linearGradient>
		<linearGradient id="paint_linear_0_4925_0" x1="68.339081" y1="66.875000" x2="68.339081" y2="528.254883" gradientUnits="userSpaceOnUse">
			<stop stop-color="#9CB6CD"/>
			<stop offset="0.420564" stop-color="#9AB3CA"/>
			<stop offset="0.716592" stop-color="#557496"/>
			<stop offset="1.000000" stop-color="#475178"/>
		</linearGradient>
	</defs>
	<g filter="url(#filter_0_4914_dd)">
		<path id="body" d="M88.2083 55L279.441 55C297.782 55 312.649 69.2354 312.649 86.7955L312.649 522.066C312.649 539.626 297.782 553.861 279.441 553.861L88.2083 553.861C69.8677 553.861 55 539.626 55 522.066L55 86.7955C55 69.2354 69.8677 55 88.2083 55Z" fill="#213648" fill-opacity="1.000000" fill-rule="evenodd"/>
	</g>
	<path id="body" d="M279.441 55C297.782 55 312.649 69.2354 312.649 86.7955L312.649 522.066C312.649 539.626 297.782 553.861 279.441 553.861L88.2083 553.861C69.8677 553.861 55 539.626 55 522.066L55 86.7955C55 69.2354 69.8677 55 88.2083 55L279.441 55Z" stroke="#979797" stroke-opacity="1.000000" stroke-width="0.000000"/>
	<g opacity="0.595562">
		<path id="reflect-frame-top" d="M280.181 54.4305L87.3547 54.4305C78.3521 54.9795 70.0496 59.0875 62.4468 66.7545C67.3362 62.4865 76.0569 56.7751 87.5867 56.7751C87.5867 56.7751 272.262 56.7751 279.949 56.7751C291.479 56.7751 300.199 62.4865 305.089 66.7545C297.486 59.0875 289.183 54.9795 280.181 54.4305Z" fill="url(#paint_linear_0_4916_0)" fill-opacity="0.650000" fill-rule="evenodd"/>
		<path id="reflect-frame-top" d="M87.3547 54.4305C78.3521 54.9795 70.0496 59.0875 62.4468 66.7545C67.3362 62.4865 76.0569 56.7751 87.5867 56.7751C87.5867 56.7751 272.262 56.7751 279.949 56.7751C291.479 56.7751 300.199 62.4865 305.089 66.7545C297.486 59.0875 289.183 54.9795 280.181 54.4305L87.3547 54.4305Z" stroke="#979797" stroke-opacity="1.000000" stroke-width="0.000000"/>
	</g>
	<g opacity="0.750000">
		<path id="reflect-frame-right" d="M307.432 517.101L307.432 89.4124C307.432 77.937 303.214 73.6949 300.698 70.9711C298.182 68.2471 298.075 66.8578 301.69 68.9144C305.305 70.9711 312.536 76.9611 312.536 89.4124L312.536 517.101C312.536 529.553 305.305 535.543 301.69 537.599C298.075 539.656 298.182 538.267 300.698 535.543C303.214 532.819 307.432 528.577 307.432 517.101Z" fill="url(#paint_linear_0_4917_0)" fill-opacity="1.000000" fill-rule="evenodd"/>
		<path id="reflect-frame-right" d="M307.432 89.4124C307.432 77.937 303.214 73.6949 300.698 70.9711C298.182 68.2471 298.075 66.8578 301.69 68.9144C305.305 70.9711 312.536 76.9611 312.536 89.4124L312.536 517.101C312.536 529.553 305.305 535.543 301.69 537.599C298.075 539.656 298.182 538.267 300.698 535.543C303.214 532.819 307.432 528.577 307.432 517.101L307.432 89.4124Z" stroke="#979797" stroke-opacity="1.000000" stroke-width="0.000000"/>
	</g>
	<g opacity="0.750000">
		<path id="reflect-frame-left" d="M60.104 517.101L60.104 89.4124C60.104 77.937 64.3215 73.6949 66.8374 70.9711C69.3533 68.2471 69.4604 66.8578 65.8455 68.9144C62.2305 70.9711 55 76.9611 55 89.4124L55 517.101C55 529.553 62.2305 535.543 65.8455 537.599C69.4604 539.656 69.3533 538.267 66.8374 535.543C64.3215 532.819 60.104 528.577 60.104 517.101Z" fill="url(#paint_linear_0_4918_0)" fill-opacity="1.000000" fill-rule="evenodd"/>
		<path id="reflect-frame-left" d="M60.104 89.4124C60.104 77.937 64.3215 73.6949 66.8374 70.9711C69.3533 68.2471 69.4604 66.8578 65.8455 68.9144C62.2305 70.9711 55 76.9611 55 89.4124L55 517.101C55 529.553 62.2305 535.543 65.8455 537.599C69.4604 539.656 69.3533 538.267 66.8374 535.543C64.3215 532.819 60.104 528.577 60.104 517.101L60.104 89.4124Z" stroke="#979797" stroke-opacity="1.000000" stroke-width="0.000000"/>
	</g>
	<path id="vol+" d="M52.4321 157.987C52.4321 156.882 53.3276 155.987 54.4321 155.987L55.3967 155.987C56.5012 155.987 57.3967 156.882 57.3967 157.987L57.3967 218.338C57.3967 219.442 56.5012 220.338 55.3967 220.338L54.4321 220.338C53.3276 220.338 52.4321 219.442 52.4321 218.338L52.4321 157.987Z" fill="#2E423C" fill-opacity="1.000000" fill-rule="evenodd"/>
	<path id="vol+" d="M55.3967 155.987C56.5012 155.987 57.3967 156.882 57.3967 157.987L57.3967 218.338C57.3967 219.442 56.5012 220.338 55.3967 220.338L54.4321 220.338C53.3276 220.338 52.4321 219.442 52.4321 218.338L52.4321 157.987C52.4321 156.882 53.3276 155.987 54.4321 155.987L55.3967 155.987Z" stroke="#979797" stroke-opacity="1.000000" stroke-width="0.000000"/>
	<path id="power" d="M309.968 210.474C309.968 209.369 310.863 208.474 311.968 208.474L312.932 208.474C314.037 208.474 314.932 209.369 314.932 210.474L314.932 253.424C314.932 254.528 314.037 255.424 312.932 255.424L311.968 255.424C310.863 255.424 309.968 254.528 309.968 253.424L309.968 210.474Z" fill="#2E423C" fill-opacity="1.000000" fill-rule="evenodd"/>
	<path id="power" d="M312.932 208.474C314.037 208.474 314.932 209.369 314.932 210.474L314.932 253.424C314.932 254.528 314.037 255.424 312.932 255.424L311.968 255.424C310.863 255.424 309.968 254.528 309.968 253.424L309.968 210.474C309.968 209.369 310.863 208.474 311.968 208.474L312.932 208.474Z" stroke="#979797" stroke-opacity="1.000000" stroke-width="0.000000"/>
	<rect id="Screen" width="233.000000" height="465.000000" transform="translate(67.506348 66.875000)" fill="#FFFFFF" fill-opacity="0"/>
	<g clip-path="url(#clip0_4922)">
		<path id="Screen Mask" d="M161.108 66.875L86.7019 66.875C75.5974 66.875 67.5063 74.4384 67.5063 84.3164L67.5063 506.706C67.5063 519.586 80.0085 530.998 94.1455 530.998L273.479 530.998C287.096 530.998 300.118 519.497 300.118 506.706L300.118 85.4581C300.118 73.6185 291.328 66.9454 280.922 66.875L205.336 66.875C205.05 66.922 199.858 69.0568 197.663 74.4382C195.469 79.8198 191.053 84.1099 186.219 84.1099L180.604 84.1099C178.306 84.1099 172.256 81.8801 169.192 74.4382C166.129 66.9965 161.395 66.922 161.108 66.875Z" fill="#FFFFFF" fill-opacity="1.000000" fill-rule="evenodd"/>
		<mask id="mask0_4923" mask-type="alpha" maskUnits="userSpaceOnUse" x="67.506348" y="66.875000" width="232.611389" height="464.123016">
			<path id="Screen Mask" d="M161.108 66.875L86.7019 66.875C75.5974 66.875 67.5063 74.4384 67.5063 84.3164L67.5063 506.706C67.5063 519.586 80.0085 530.998 94.1455 530.998L273.479 530.998C287.096 530.998 300.118 519.497 300.118 506.706L300.118 85.4581C300.118 73.6185 291.328 66.9454 280.922 66.875L205.336 66.875C205.05 66.922 199.858 69.0568 197.663 74.4382C195.469 79.8198 191.053 84.1099 186.219 84.1099L180.604 84.1099C178.306 84.1099 172.256 81.8801 169.192 74.4382C166.129 66.9965 161.395 66.922 161.108 66.875Z" fill="#FFFFFF" fill-opacity="1.000000" fill-rule="evenodd"/>
		</mask>
		<g mask="url(#mask0_4923)">
			<rect id="Rectangle" x="67.432129" y="66.875000" width="233.000000" height="465.000000" fill="url(#paint_linear_0_4925_0)" fill-opacity="1.000000"/>
		</g>
		<g mask="url(#mask0_4923)">
			<path id="12:49" d="M210.083 179.907C210.06 175.227 213.568 171.813 218.771 171.837C223.56 171.86 228.06 174.759 228.068 183.188C228.083 191.087 224.365 195.751 218.599 195.751C213.943 195.751 210.763 192.782 210.31 188.86L215.162 188.86C215.537 190.556 216.818 191.532 218.599 191.532C221.638 191.532 223.24 188.727 223.247 184.11L223.091 184.11C222.06 186.157 219.787 187.399 217.224 187.399C213.099 187.399 210.091 184.251 210.083 179.907ZM175.568 195.431L158.974 195.431L158.974 191.884L167.263 184.212C169.372 182.181 170.513 180.907 170.513 179.056C170.513 177.009 168.99 175.735 166.943 175.735C164.818 175.735 163.412 177.102 163.419 179.329L158.747 179.329C158.74 174.759 162.091 171.837 166.974 171.837C171.966 171.837 175.263 174.688 175.263 178.727C175.263 181.376 173.974 183.556 169.193 187.923L165.794 191.251L165.794 191.407L175.568 191.407L175.568 195.431ZM148.815 172.157L153.44 172.157L153.44 195.431L148.526 195.431L148.526 176.829L148.385 176.829L143.057 180.173L143.057 175.806L148.815 172.157ZM199.476 191.337L188.304 191.337L188.304 187.462L198.023 172.157L204.179 172.157L204.179 187.399L207.07 187.399L207.07 191.337L204.179 191.337L204.179 195.431L199.476 195.431L199.476 191.337ZM222.763 179.759C222.74 177.548 221.068 175.704 218.81 175.704C216.521 175.704 214.833 177.501 214.849 179.774C214.865 182.056 216.49 183.829 218.763 183.829C221.013 183.829 222.771 181.985 222.763 179.759ZM184.742 178.587C184.727 180.102 183.469 181.313 182.008 181.313C180.508 181.313 179.274 180.102 179.282 178.587C179.274 177.102 180.508 175.884 182.008 175.884C183.469 175.884 184.727 177.102 184.742 178.587ZM193.265 187.399L199.57 187.399L199.57 177.524L199.39 177.524L193.265 187.212L193.265 187.399ZM184.742 190.001C184.727 191.509 183.469 192.727 182.008 192.727C180.508 192.727 179.274 191.509 179.282 190.001C179.274 188.509 180.508 187.298 182.008 187.298C183.469 187.298 184.727 188.509 184.742 190.001Z" fill="#FFFFFF" fill-opacity="1.000000" fill-rule="evenodd"/>
		</g>
	</g>
	<rect id="Screen" width="233.000000" height="465.000000" transform="translate(67.506348 66.875000)" stroke="#979797" stroke-opacity="1.000000" stroke-width="1.000000"/>
	<rect id="Group 29" width="218.000000" height="87.000000" transform="translate(74.432129 221.430542)" fill="#FFFFFF" fill-opacity="0"/>
	<g clip-path="url(#clip0_4927)">
		<g filter="url(#filter_0_4928_dd)">
			<rect id="Rectangle" x="74.432129" y="221.430542" rx="5.000000" width="218.000000" height="87.000000" fill="#FBFCFE" fill-opacity="1.000000"/>
		</g>
		<rect id="Group 28" width="187.000000" height="11.000000" transform="translate(90.432129 237.430542)" fill="#FFFFFF" fill-opacity="0"/>
		<g clip-path="url(#clip0_4929)">
			<path id="PayAPI" d="M92.6025 247.431L91.0645 247.431L91.0645 240.158L93.9331 240.158C95.5859 240.158 96.5405 241.178 96.5405 242.623C96.5405 244.074 95.5664 245.072 93.894 245.072L92.6025 245.072L92.6025 247.431ZM109.969 245.773L109.43 247.431L107.782 247.431L110.294 240.158L112.274 240.158L114.781 247.431L113.133 247.431L112.594 245.773L109.969 245.773ZM117.194 247.431L115.656 247.431L115.656 240.158L118.525 240.158C120.178 240.158 121.132 241.178 121.132 242.623C121.132 244.074 120.158 245.072 118.486 245.072L117.194 245.072L117.194 247.431ZM122.133 240.158L123.671 240.158L123.671 247.431L122.133 247.431L122.133 240.158ZM92.6025 241.415L92.6025 243.839L93.645 243.839C94.5264 243.839 94.9561 243.344 94.9561 242.623C94.9561 241.898 94.5264 241.415 93.6377 241.415L92.6025 241.415ZM117.194 241.415L117.194 243.839L118.237 243.839C119.118 243.839 119.548 243.344 119.548 242.623C119.548 241.898 119.118 241.415 118.229 241.415L117.194 241.415ZM111.256 241.82L110.36 244.572L112.208 244.572L111.312 241.82L111.256 241.82ZM100.516 246.674C100.25 247.182 99.7301 247.533 98.922 247.533C97.882 247.533 97.1129 246.986 97.1129 245.907C97.1129 244.689 98.0822 244.328 99.1613 244.227C100.109 244.135 100.482 244.088 100.482 243.737L100.482 243.717C100.482 243.268 100.187 243.009 99.6715 243.009C99.1295 243.009 98.8048 243.275 98.7023 243.639L97.3034 243.524C97.5133 242.531 98.3727 241.906 99.6788 241.906C100.895 241.906 101.996 242.453 101.996 243.751L101.996 247.431L100.56 247.431L100.56 246.674L100.516 246.674ZM105.937 248.019C105.627 248.9 105.031 249.476 103.906 249.476C103.522 249.476 103.171 249.413 102.953 249.32L103.295 248.19C103.827 248.353 104.206 248.329 104.406 247.819L104.494 247.587L102.538 241.976L104.128 241.976L105.258 245.983L105.314 245.983L106.454 241.976L108.056 241.976L105.937 248.019ZM98.5582 245.858C98.5582 246.273 98.8903 246.491 99.3566 246.491C100.021 246.491 100.492 246.054 100.492 245.48L100.492 244.901C100.311 245.023 99.7716 245.101 99.442 245.148C98.9098 245.221 98.5582 245.431 98.5582 245.858Z" fill="#BA4270" fill-opacity="1.000000" fill-rule="evenodd"/>
			<g opacity="0.500000">
				<path id="Just Now" d="M238.87 245.358L238.87 240.158L239.751 240.158L239.751 245.358C239.751 246.752 238.941 247.531 237.676 247.531C236.484 247.531 235.618 246.845 235.618 245.726L236.484 245.726C236.484 246.344 236.985 246.749 237.676 246.749C238.438 246.749 238.87 246.261 238.87 245.358ZM263.898 240.158L264.765 240.158L264.765 247.431L263.913 247.431L259.951 241.72L259.877 241.72L259.877 247.431L258.998 247.431L258.998 240.158L259.85 240.158L263.828 245.883L263.898 245.883L263.898 240.158ZM253.643 241.976L254.808 241.976L254.808 242.687L253.643 242.687L253.643 245.868C253.643 246.578 253.997 246.691 254.366 246.691C254.552 246.691 254.666 246.664 254.737 246.649L254.908 247.401C254.793 247.445 254.595 247.501 254.283 247.501C253.573 247.501 252.803 247.047 252.803 246.095L252.803 242.687L251.981 242.687L251.981 241.976L252.803 241.976L252.803 240.67L253.643 240.67L253.643 241.976ZM249.139 241.906C250.22 241.906 250.809 242.423 251.072 243.197L250.318 243.41C250.174 243.034 249.871 242.628 249.139 242.628C248.472 242.628 247.974 242.97 247.974 243.439C247.974 243.859 248.267 244.074 248.912 244.235L249.722 244.432C250.696 244.672 251.17 245.15 251.17 245.91C251.17 246.852 250.308 247.545 249.041 247.545C247.925 247.545 247.161 247.05 246.966 246.124L247.762 245.924C247.911 246.51 248.34 246.806 249.026 246.806C249.808 246.806 250.306 246.422 250.306 245.953C250.306 245.578 250.044 245.314 249.495 245.187L248.587 244.972C247.584 244.738 247.137 244.235 247.137 243.483C247.137 242.557 247.989 241.906 249.139 241.906ZM271.1 244.733C271.1 246.422 270.106 247.545 268.629 247.545C267.152 247.545 266.156 246.422 266.156 244.733C266.156 243.026 267.152 241.906 268.629 241.906C270.106 241.906 271.1 243.026 271.1 244.733ZM243.429 246.691C244.054 246.691 244.835 246.222 244.835 245.202L244.835 241.976L245.673 241.976L245.673 247.431L244.835 247.431L244.835 246.508L244.779 246.508C244.523 247.062 243.983 247.501 243.161 247.501C242.138 247.501 241.398 246.835 241.398 245.441L241.398 241.976L242.235 241.976L242.235 245.385C242.235 246.181 242.733 246.691 243.429 246.691ZM274.254 247.431L273.429 247.431L271.769 241.976L272.647 241.976L273.827 246.151L273.885 246.151L275.05 241.976L275.943 241.976L277.093 246.139L277.152 246.139L278.331 241.976L279.21 241.976L277.55 247.431L276.725 247.431L275.531 243.241L275.448 243.241L274.254 247.431ZM266.996 244.733C266.996 245.827 267.506 246.791 268.629 246.791C269.75 246.791 270.262 245.827 270.262 244.733C270.262 243.639 269.75 242.658 268.629 242.658C267.506 242.658 266.996 243.639 266.996 244.733Z" fill="#36536B" fill-opacity="1.000000" fill-rule="evenodd"/>
			</g>
		</g>
		<path id="The payment has been" d="M93.2031 256.939L90.9155 256.939L90.9155 256.158L96.3696 256.158L96.3696 256.939L94.082 256.939L94.082 263.431L93.2031 263.431L93.2031 256.939ZM99.8921 258.658C99.0645 258.658 98.4566 259.197 98.4566 260.149L98.4566 263.431L97.6192 263.431L97.6192 256.158L98.4566 256.158L98.4566 258.828L98.5298 258.828C98.7837 258.265 99.2745 257.906 100.134 257.906C101.25 257.906 101.994 258.562 101.994 259.964L101.994 263.431L101.157 263.431L101.157 260.022C101.157 259.156 100.681 258.658 99.8921 258.658ZM158.358 258.658C157.53 258.658 156.923 259.197 156.923 260.149L156.923 263.431L156.085 263.431L156.085 256.158L156.923 256.158L156.923 258.828L156.996 258.828C157.25 258.265 157.74 257.906 158.6 257.906C159.715 257.906 160.46 258.562 160.46 259.964L160.46 263.431L159.623 263.431L159.623 260.022C159.623 259.156 159.147 258.658 158.358 258.658ZM176.596 263.431L175.788 263.431L175.788 256.158L176.625 256.158L176.625 258.843L176.696 258.843C176.882 258.557 177.209 257.906 178.273 257.906C179.65 257.906 180.602 258.999 180.602 260.718C180.602 262.452 179.65 263.545 178.288 263.545C177.236 263.545 176.882 262.891 176.696 262.593L176.596 262.593L176.596 263.431ZM249.138 262.593C248.955 262.891 248.599 263.545 247.549 263.545C246.184 263.545 245.232 262.452 245.232 260.718C245.232 258.999 246.184 257.906 247.564 257.906C248.628 257.906 248.955 258.557 249.138 258.843L249.212 258.843L249.212 256.158L250.049 256.158L250.049 263.431L249.239 263.431L249.239 262.593L249.138 262.593ZM259.268 256.939L256.981 256.939L256.981 256.158L262.435 256.158L262.435 256.939L260.147 256.939L260.147 263.431L259.268 263.431L259.268 256.939ZM265.958 258.658C265.13 258.658 264.522 259.197 264.522 260.149L264.522 263.431L263.685 263.431L263.685 256.158L264.522 256.158L264.522 258.828L264.595 258.828C264.849 258.265 265.34 257.906 266.199 257.906C267.315 257.906 268.06 258.562 268.06 259.964L268.06 263.431L267.222 263.431L267.222 260.022C267.222 259.156 266.746 258.658 265.958 258.658ZM150.845 257.976L152.009 257.976L152.009 258.687L150.845 258.687L150.845 261.868C150.845 262.578 151.199 262.691 151.567 262.691C151.753 262.691 151.868 262.664 151.938 262.649L152.109 263.401C151.995 263.445 151.797 263.501 151.484 263.501C150.774 263.501 150.005 263.047 150.005 262.095L150.005 258.687L149.182 258.687L149.182 257.976L150.005 257.976L150.005 256.67L150.845 256.67L150.845 257.976ZM209.124 263.431L208.287 263.431L208.287 257.976L209.097 257.976L209.097 258.799L209.154 258.799C209.354 258.26 209.92 257.891 210.574 257.891C210.699 257.891 210.919 257.898 211.014 257.906L211.014 258.758C210.958 258.743 210.726 258.702 210.504 258.702C209.708 258.702 209.124 259.241 209.124 259.978L209.124 263.431ZM107.989 262.166C107.732 262.991 106.924 263.545 105.816 263.545C104.239 263.545 103.272 262.422 103.272 260.745C103.272 259.07 104.253 257.906 105.73 257.906C106.866 257.906 108.074 258.601 108.074 260.633L108.074 260.987L104.114 260.987C104.153 262.156 104.832 262.791 105.816 262.791C106.473 262.791 106.966 262.508 107.178 261.939L107.989 262.166ZM113.002 265.476L112.165 265.476L112.165 257.976L112.975 257.976L112.975 258.843L113.075 258.843C113.258 258.557 113.586 257.906 114.65 257.906C116.029 257.906 116.982 258.999 116.982 260.718C116.982 262.452 116.029 263.545 114.665 263.545C113.615 263.545 113.258 262.891 113.075 262.593L113.002 262.593L113.002 265.476ZM121.483 262.691C121.313 263.047 120.815 263.557 119.865 263.557C118.827 263.557 118.002 262.947 118.002 261.883C118.002 260.633 119.108 260.408 120.119 260.276C121.115 260.149 121.525 260.186 121.525 259.781L121.525 259.751C121.525 259.053 121.147 258.643 120.375 258.643C119.577 258.643 119.14 259.07 118.954 259.468L118.158 259.182C118.586 258.189 119.523 257.906 120.346 257.906C121.044 257.906 122.365 258.103 122.365 259.837L122.365 263.431L121.525 263.431L121.525 262.691L121.483 262.691ZM130.104 263.431L129.267 263.431L129.267 257.976L130.077 257.976L130.077 258.828L130.148 258.828C130.375 258.245 130.9 257.906 131.611 257.906C132.328 257.906 132.805 258.245 133.073 258.828L133.132 258.828C133.412 258.265 133.984 257.906 134.765 257.906C135.737 257.906 136.428 258.499 136.428 259.781L136.428 263.431L135.588 263.431L135.588 259.781C135.588 258.975 135.077 258.658 134.479 258.658C133.713 258.658 133.273 259.175 133.273 259.878L133.273 263.431L132.421 263.431L132.421 259.695C132.421 259.073 131.977 258.658 131.342 258.658C130.688 258.658 130.104 259.222 130.104 260.022L130.104 263.431ZM142.421 262.166C142.164 262.991 141.356 263.545 140.248 263.545C138.671 263.545 137.704 262.422 137.704 260.745C137.704 259.07 138.685 257.906 140.162 257.906C141.298 257.906 142.506 258.601 142.506 260.633L142.506 260.987L138.546 260.987C138.585 262.156 139.264 262.791 140.248 262.791C140.904 262.791 141.398 262.508 141.61 261.939L142.421 262.166ZM146.015 258.658C145.212 258.658 144.621 259.197 144.621 260.149L144.621 263.431L143.784 263.431L143.784 257.976L144.595 257.976L144.595 258.828L144.665 258.828C144.922 258.274 145.432 257.906 146.257 257.906C147.361 257.906 148.103 258.572 148.103 259.964L148.103 263.431L147.265 263.431L147.265 260.022C147.265 259.165 146.792 258.658 146.015 258.658ZM165.219 262.691C165.048 263.047 164.55 263.557 163.601 263.557C162.563 263.557 161.738 262.947 161.738 261.883C161.738 260.633 162.844 260.408 163.855 260.276C164.851 260.149 165.261 260.186 165.261 259.781L165.261 259.751C165.261 259.053 164.882 258.643 164.111 258.643C163.313 258.643 162.876 259.07 162.69 259.468L161.894 259.182C162.321 258.189 163.259 257.906 164.082 257.906C164.78 257.906 166.101 258.103 166.101 259.837L166.101 263.431L165.261 263.431L165.261 262.691L165.219 262.691ZM169.565 257.906C170.646 257.906 171.234 258.423 171.498 259.197L170.744 259.41C170.6 259.034 170.297 258.628 169.565 258.628C168.898 258.628 168.4 258.97 168.4 259.439C168.4 259.859 168.693 260.074 169.337 260.235L170.148 260.432C171.122 260.672 171.596 261.15 171.596 261.91C171.596 262.852 170.734 263.545 169.467 263.545C168.351 263.545 167.587 263.05 167.392 262.124L168.188 261.924C168.337 262.51 168.766 262.806 169.452 262.806C170.233 262.806 170.732 262.422 170.732 261.953C170.732 261.578 170.47 261.314 169.921 261.187L169.013 260.972C168.009 260.738 167.563 260.235 167.563 259.483C167.563 258.557 168.415 257.906 169.565 257.906ZM186.341 262.166C186.085 262.991 185.277 263.545 184.168 263.545C182.591 263.545 181.624 262.422 181.624 260.745C181.624 259.07 182.606 257.906 184.083 257.906C185.218 257.906 186.426 258.601 186.426 260.633L186.426 260.987L182.466 260.987C182.506 262.156 183.184 262.791 184.168 262.791C184.825 262.791 185.318 262.508 185.53 261.939L186.341 262.166ZM192.165 262.166C191.909 262.991 191.1 263.545 189.992 263.545C188.415 263.545 187.448 262.422 187.448 260.745C187.448 259.07 188.43 257.906 189.907 257.906C191.042 257.906 192.25 258.601 192.25 260.633L192.25 260.987L188.29 260.987C188.329 262.156 189.008 262.791 189.992 262.791C190.649 262.791 191.142 262.508 191.354 261.939L192.165 262.166ZM195.76 258.658C194.957 258.658 194.366 259.197 194.366 260.149L194.366 263.431L193.528 263.431L193.528 257.976L194.339 257.976L194.339 258.828L194.41 258.828C194.666 258.274 195.176 257.906 196.001 257.906C197.105 257.906 197.847 258.572 197.847 259.964L197.847 263.431L197.01 263.431L197.01 260.022C197.01 259.165 196.536 258.658 195.76 258.658ZM203.03 265.476L202.193 265.476L202.193 257.976L203.004 257.976L203.004 258.843L203.104 258.843C203.287 258.557 203.614 257.906 204.678 257.906C206.058 257.906 207.01 258.999 207.01 260.718C207.01 262.452 206.058 263.545 204.693 263.545C203.643 263.545 203.287 262.891 203.104 262.593L203.03 262.593L203.03 265.476ZM216.525 260.733C216.525 262.422 215.532 263.545 214.055 263.545C212.578 263.545 211.582 262.422 211.582 260.733C211.582 259.026 212.578 257.906 214.055 257.906C215.532 257.906 216.525 259.026 216.525 260.733ZM222.164 261.839C222.023 262.806 221.227 263.545 220.021 263.545C218.485 263.545 217.548 262.366 217.548 260.733C217.548 259.07 218.529 257.906 220.006 257.906C221.156 257.906 222.023 258.587 222.164 259.61L221.327 259.61C221.2 259.112 220.758 258.658 220.021 258.658C219.039 258.658 218.387 259.468 218.387 260.703C218.387 261.968 219.027 262.791 220.021 262.791C220.673 262.791 221.171 262.437 221.327 261.839L222.164 261.839ZM227.847 262.166C227.59 262.991 226.782 263.545 225.674 263.545C224.097 263.545 223.13 262.422 223.13 260.745C223.13 259.07 224.111 257.906 225.588 257.906C226.724 257.906 227.932 258.601 227.932 260.633L227.932 260.987L223.972 260.987C224.011 262.156 224.69 262.791 225.674 262.791C226.331 262.791 226.824 262.508 227.036 261.939L227.847 262.166ZM231.141 257.906C232.223 257.906 232.811 258.423 233.075 259.197L232.32 259.41C232.176 259.034 231.874 258.628 231.141 258.628C230.475 258.628 229.977 258.97 229.977 259.439C229.977 259.859 230.27 260.074 230.914 260.235L231.725 260.432C232.699 260.672 233.173 261.15 233.173 261.91C233.173 262.852 232.311 263.545 231.044 263.545C229.928 263.545 229.164 263.05 228.968 262.124L229.764 261.924C229.913 262.51 230.343 262.806 231.029 262.806C231.81 262.806 232.308 262.422 232.308 261.953C232.308 261.578 232.047 261.314 231.498 261.187L230.59 260.972C229.586 260.738 229.139 260.235 229.139 259.483C229.139 258.557 229.991 257.906 231.141 257.906ZM236.369 257.906C237.45 257.906 238.038 258.423 238.302 259.197L237.548 259.41C237.404 259.034 237.101 258.628 236.369 258.628C235.702 258.628 235.204 258.97 235.204 259.439C235.204 259.859 235.497 260.074 236.141 260.235L236.952 260.432C237.926 260.672 238.4 261.15 238.4 261.91C238.4 262.852 237.538 263.545 236.271 263.545C235.155 263.545 234.391 263.05 234.196 262.124L234.992 261.924C235.141 262.51 235.57 262.806 236.256 262.806C237.037 262.806 237.536 262.422 237.536 261.953C237.536 261.578 237.274 261.314 236.725 261.187L235.817 260.972C234.813 260.738 234.367 260.235 234.367 259.483C234.367 258.557 235.219 257.906 236.369 257.906ZM244.125 262.166C243.869 262.991 243.061 263.545 241.952 263.545C240.375 263.545 239.408 262.422 239.408 260.745C239.408 259.07 240.39 257.906 241.867 257.906C243.002 257.906 244.211 258.601 244.211 260.633L244.211 260.987L240.251 260.987C240.29 262.156 240.968 262.791 241.952 262.791C242.609 262.791 243.102 262.508 243.315 261.939L244.125 262.166ZM274.054 262.166C273.798 262.991 272.99 263.545 271.881 263.545C270.304 263.545 269.337 262.422 269.337 260.745C269.337 259.07 270.319 257.906 271.796 257.906C272.931 257.906 274.14 258.601 274.14 260.633L274.14 260.987L270.18 260.987C270.219 262.156 270.897 262.791 271.881 262.791C272.538 262.791 273.031 262.508 273.244 261.939L274.054 262.166ZM125.845 264.226C125.527 265.074 124.995 265.476 124.238 265.476C123.955 265.476 123.713 265.42 123.628 265.376L123.84 264.639C124.453 264.795 124.829 264.717 125.134 263.885L125.291 263.46L123.274 257.976L124.182 257.976L125.688 262.322L125.745 262.322L127.251 257.976L128.159 257.976L125.845 264.226ZM105.73 258.658C104.771 258.658 104.17 259.414 104.114 260.264L107.222 260.264C107.222 259.339 106.639 258.658 105.73 258.658ZM114.552 258.658C113.529 258.658 112.99 259.483 112.99 260.703C112.99 261.939 113.544 262.791 114.552 262.791C115.602 262.791 116.142 261.868 116.142 260.703C116.142 259.554 115.617 258.658 114.552 258.658ZM140.162 258.658C139.203 258.658 138.602 259.414 138.546 260.264L141.654 260.264C141.654 259.339 141.07 258.658 140.162 258.658ZM178.173 258.658C177.15 258.658 176.611 259.483 176.611 260.703C176.611 261.939 177.165 262.791 178.173 262.791C179.225 262.791 179.765 261.868 179.765 260.703C179.765 259.554 179.24 258.658 178.173 258.658ZM184.083 258.658C183.123 258.658 182.523 259.414 182.466 260.264L185.574 260.264C185.574 259.339 184.991 258.658 184.083 258.658ZM189.907 258.658C188.947 258.658 188.347 259.414 188.29 260.264L191.398 260.264C191.398 259.339 190.815 258.658 189.907 258.658ZM204.581 258.658C203.558 258.658 203.018 259.483 203.018 260.703C203.018 261.939 203.572 262.791 204.581 262.791C205.631 262.791 206.17 261.868 206.17 260.703C206.17 259.554 205.645 258.658 204.581 258.658ZM212.421 260.733C212.421 261.827 212.932 262.791 214.055 262.791C215.175 262.791 215.688 261.827 215.688 260.733C215.688 259.639 215.175 258.658 214.055 258.658C212.932 258.658 212.421 259.639 212.421 260.733ZM225.588 258.658C224.629 258.658 224.028 259.414 223.972 260.264L227.08 260.264C227.08 259.339 226.497 258.658 225.588 258.658ZM241.867 258.658C240.907 258.658 240.307 259.414 240.251 260.264L243.359 260.264C243.359 259.339 242.775 258.658 241.867 258.658ZM246.072 260.703C246.072 261.868 246.612 262.791 247.661 262.791C248.67 262.791 249.224 261.939 249.224 260.703C249.224 259.483 248.684 258.658 247.661 258.658C246.597 258.658 246.072 259.554 246.072 260.703ZM271.796 258.658C270.836 258.658 270.236 259.414 270.18 260.264L273.287 260.264C273.287 259.339 272.704 258.658 271.796 258.658ZM118.842 261.924C118.842 262.508 119.325 262.806 119.992 262.806C120.985 262.806 121.525 262.139 121.525 261.455L121.525 260.689C121.383 260.86 120.431 260.96 120.077 261.001C119.423 261.087 118.842 261.285 118.842 261.924ZM162.578 261.924C162.578 262.508 163.061 262.806 163.728 262.806C164.721 262.806 165.261 262.139 165.261 261.455L165.261 260.689C165.119 260.86 164.167 260.96 163.813 261.001C163.159 261.087 162.578 261.285 162.578 261.924ZM252.946 262.847C252.946 263.199 252.658 263.487 252.306 263.487C251.955 263.487 251.669 263.199 251.669 262.847C251.669 262.495 251.955 262.21 252.306 262.21C252.658 262.21 252.946 262.495 252.946 262.847ZM202.876 271.976L204.097 271.976L204.097 272.687L202.876 272.687L202.876 277.431L202.036 277.431L202.036 272.687L201.157 272.687L201.157 271.976L202.036 271.976L202.036 271.222C202.036 270.285 202.791 269.816 203.572 269.816C203.984 269.816 204.238 269.901 204.368 269.96L204.126 270.682C204.041 270.656 203.899 270.597 203.657 270.597C203.103 270.597 202.876 270.883 202.876 271.422L202.876 271.976ZM110.02 270.158L110.857 270.158L110.857 277.431L110.02 277.431L110.02 270.158ZM157.263 276.593C157.08 276.891 156.724 277.545 155.674 277.545C154.309 277.545 153.357 276.452 153.357 274.718C153.357 272.999 154.309 271.906 155.689 271.906C156.753 271.906 157.08 272.557 157.263 272.843L157.337 272.843L157.337 270.158L158.174 270.158L158.174 277.431L157.363 277.431L157.363 276.593L157.263 276.593ZM169.295 276.593C169.112 276.891 168.755 277.545 167.705 277.545C166.341 277.545 165.388 276.452 165.388 274.718C165.388 272.999 166.341 271.906 167.72 271.906C168.784 271.906 169.112 272.557 169.295 272.843L169.368 272.843L169.368 270.158L170.205 270.158L170.205 277.431L169.395 277.431L169.395 276.593L169.295 276.593ZM196.298 276.593C196.114 276.891 195.758 277.545 194.708 277.545C193.343 277.545 192.391 276.452 192.391 274.718C192.391 272.999 193.343 271.906 194.723 271.906C195.787 271.906 196.114 272.557 196.298 272.843L196.371 272.843L196.371 270.158L197.208 270.158L197.208 277.431L196.398 277.431L196.398 276.593L196.298 276.593ZM92.4072 271.976L93.5718 271.976L93.5718 272.687L92.4072 272.687L92.4072 275.868C92.4072 276.578 92.7612 276.691 93.1299 276.691C93.3154 276.691 93.4302 276.664 93.501 276.649L93.6719 277.401C93.5571 277.445 93.3594 277.501 93.0469 277.501C92.3364 277.501 91.5674 277.047 91.5674 276.095L91.5674 272.687L90.7446 272.687L90.7446 271.976L91.5674 271.976L91.5674 270.67L92.4072 270.67L92.4072 271.976ZM101.953 271.976L103.117 271.976L103.117 272.687L101.953 272.687L101.953 275.868C101.953 276.578 102.307 276.691 102.675 276.691C102.861 276.691 102.976 276.664 103.046 276.649L103.217 277.401C103.103 277.445 102.905 277.501 102.592 277.501C101.882 277.501 101.113 277.047 101.113 276.095L101.113 272.687L100.29 272.687L100.29 271.976L101.113 271.976L101.113 270.67L101.953 270.67L101.953 271.976ZM148.373 271.976L149.538 271.976L149.538 272.687L148.373 272.687L148.373 275.868C148.373 276.578 148.727 276.691 149.096 276.691C149.281 276.691 149.396 276.664 149.467 276.649L149.638 277.401C149.523 277.445 149.325 277.501 149.013 277.501C148.302 277.501 147.533 277.047 147.533 276.095L147.533 272.687L146.711 272.687L146.711 271.976L147.533 271.976L147.533 270.67L148.373 270.67L148.373 271.976ZM184.453 271.976L185.617 271.976L185.617 272.687L184.453 272.687L184.453 275.868C184.453 276.578 184.807 276.691 185.175 276.691C185.361 276.691 185.476 276.664 185.546 276.649L185.717 277.401C185.603 277.445 185.405 277.501 185.092 277.501C184.382 277.501 183.613 277.047 183.613 276.095L183.613 272.687L182.79 272.687L182.79 271.976L183.613 271.976L183.613 270.67L184.453 270.67L184.453 271.976ZM206.113 277.431L205.275 277.431L205.275 271.976L206.086 271.976L206.086 272.799L206.142 272.799C206.342 272.26 206.909 271.891 207.563 271.891C207.688 271.891 207.907 271.898 208.003 271.906L208.003 272.758C207.946 272.743 207.714 272.702 207.492 272.702C206.696 272.702 206.113 273.241 206.113 273.978L206.113 277.431ZM244.28 277.431L243.443 277.431L243.443 271.976L244.254 271.976L244.254 272.799L244.31 272.799C244.51 272.26 245.076 271.891 245.731 271.891C245.855 271.891 246.075 271.898 246.17 271.906L246.17 272.758C246.114 272.743 245.882 272.702 245.66 272.702C244.864 272.702 244.28 273.241 244.28 273.978L244.28 277.431ZM99.4658 274.733C99.4658 276.422 98.4721 277.545 96.9951 277.545C95.518 277.545 94.5219 276.422 94.5219 274.733C94.5219 273.026 95.518 271.906 96.9951 271.906C98.4721 271.906 99.4658 273.026 99.4658 274.733ZM107.606 276.691C107.435 277.047 106.937 277.557 105.987 277.557C104.949 277.557 104.124 276.947 104.124 275.883C104.124 274.633 105.23 274.408 106.241 274.276C107.237 274.149 107.647 274.186 107.647 273.781L107.647 273.751C107.647 273.053 107.269 272.643 106.497 272.643C105.699 272.643 105.262 273.07 105.076 273.468L104.28 273.182C104.708 272.189 105.645 271.906 106.468 271.906C107.166 271.906 108.487 272.103 108.487 273.837L108.487 277.431L107.647 277.431L107.647 276.691L107.606 276.691ZM118.43 276.691C118.259 277.047 117.761 277.557 116.811 277.557C115.773 277.557 114.948 276.947 114.948 275.883C114.948 274.633 116.054 274.408 117.065 274.276C118.061 274.149 118.471 274.186 118.471 273.781L118.471 273.751C118.471 273.053 118.093 272.643 117.321 272.643C116.523 272.643 116.086 273.07 115.9 273.468L115.104 273.182C115.532 272.189 116.469 271.906 117.292 271.906C117.99 271.906 119.311 272.103 119.311 273.837L119.311 277.431L118.471 277.431L118.471 276.691L118.43 276.691ZM121.681 277.431L120.844 277.431L120.844 271.976L121.654 271.976L121.654 272.828L121.725 272.828C121.952 272.245 122.477 271.906 123.187 271.906C123.905 271.906 124.381 272.245 124.65 272.828L124.708 272.828C124.989 272.265 125.56 271.906 126.342 271.906C127.313 271.906 128.004 272.499 128.004 273.781L128.004 277.431L127.164 277.431L127.164 273.781C127.164 272.975 126.654 272.658 126.056 272.658C125.289 272.658 124.85 273.175 124.85 273.878L124.85 277.431L123.998 277.431L123.998 273.695C123.998 273.073 123.554 272.658 122.919 272.658C122.265 272.658 121.681 273.222 121.681 274.022L121.681 277.431ZM134.224 274.733C134.224 276.422 133.231 277.545 131.754 277.545C130.277 277.545 129.28 276.422 129.28 274.733C129.28 273.026 130.277 271.906 131.754 271.906C133.231 271.906 134.224 273.026 134.224 274.733ZM143.544 272.658C142.741 272.658 142.15 273.197 142.15 274.149L142.15 277.431L141.312 277.431L141.312 271.976L142.123 271.976L142.123 272.828L142.194 272.828C142.45 272.274 142.96 271.906 143.786 271.906C144.889 271.906 145.631 272.572 145.631 273.964L145.631 277.431L144.794 277.431L144.794 274.022C144.794 273.165 144.32 272.658 143.544 272.658ZM164.281 276.166C164.025 276.991 163.217 277.545 162.108 277.545C160.531 277.545 159.565 276.422 159.565 274.745C159.565 273.07 160.546 271.906 162.023 271.906C163.158 271.906 164.367 272.601 164.367 274.633L164.367 274.987L160.407 274.987C160.446 276.156 161.125 276.791 162.108 276.791C162.765 276.791 163.258 276.508 163.471 275.939L164.281 276.166ZM182.022 275.839C181.881 276.806 181.085 277.545 179.879 277.545C178.343 277.545 177.405 276.366 177.405 274.733C177.405 273.07 178.387 271.906 179.864 271.906C181.014 271.906 181.881 272.587 182.022 273.61L181.185 273.61C181.058 273.112 180.616 272.658 179.879 272.658C178.897 272.658 178.245 273.468 178.245 274.703C178.245 275.968 178.885 276.791 179.879 276.791C180.53 276.791 181.029 276.437 181.185 275.839L182.022 275.839ZM191.284 276.166C191.028 276.991 190.22 277.545 189.111 277.545C187.534 277.545 186.567 276.422 186.567 274.745C186.567 273.07 187.549 271.906 189.026 271.906C190.161 271.906 191.37 272.601 191.37 274.633L191.37 274.987L187.41 274.987C187.449 276.156 188.127 276.791 189.111 276.791C189.768 276.791 190.261 276.508 190.474 275.939L191.284 276.166ZM213.514 274.733C213.514 276.422 212.52 277.545 211.043 277.545C209.566 277.545 208.57 276.422 208.57 274.733C208.57 273.026 209.566 271.906 211.043 271.906C212.52 271.906 213.514 273.026 213.514 274.733ZM215.63 277.431L214.793 277.431L214.793 271.976L215.603 271.976L215.603 272.828L215.674 272.828C215.901 272.245 216.426 271.906 217.136 271.906C217.854 271.906 218.33 272.245 218.599 272.828L218.657 272.828C218.938 272.265 219.509 271.906 220.291 271.906C221.262 271.906 221.953 272.499 221.953 273.781L221.953 277.431L221.113 277.431L221.113 273.781C221.113 272.975 220.603 272.658 220.005 272.658C219.238 272.658 218.799 273.175 218.799 273.878L218.799 277.431L217.947 277.431L217.947 273.695C217.947 273.073 217.502 272.658 216.868 272.658C216.213 272.658 215.63 273.222 215.63 274.022L215.63 277.431ZM236.355 274.733C236.355 276.422 235.361 277.545 233.884 277.545C232.407 277.545 231.411 276.422 231.411 274.733C231.411 273.026 232.407 271.906 233.884 271.906C235.361 271.906 236.355 273.026 236.355 274.733ZM137.534 276.691C138.159 276.691 138.94 276.222 138.94 275.202L138.94 271.976L139.778 271.976L139.778 277.431L138.94 277.431L138.94 276.508L138.884 276.508C138.628 277.062 138.088 277.501 137.265 277.501C136.242 277.501 135.503 276.835 135.503 275.441L135.503 271.976L136.34 271.976L136.34 275.385C136.34 276.181 136.838 276.691 137.534 276.691ZM173.883 276.691C174.508 276.691 175.29 276.222 175.29 275.202L175.29 271.976L176.127 271.976L176.127 277.431L175.29 277.431L175.29 276.508L175.233 276.508C174.977 277.062 174.438 277.501 173.615 277.501C172.592 277.501 171.852 276.835 171.852 275.441L171.852 271.976L172.69 271.976L172.69 275.385C172.69 276.181 173.188 276.691 173.883 276.691ZM228.444 278.226C228.127 279.074 227.595 279.476 226.838 279.476C226.555 279.476 226.313 279.42 226.227 279.376L226.44 278.639C227.053 278.795 227.429 278.717 227.734 277.885L227.89 277.46L225.873 271.976L226.782 271.976L228.288 276.322L228.344 276.322L229.85 271.976L230.759 271.976L228.444 278.226ZM239.665 276.691C240.29 276.691 241.071 276.222 241.071 275.202L241.071 271.976L241.908 271.976L241.908 277.431L241.071 277.431L241.071 276.508L241.015 276.508C240.758 277.062 240.219 277.501 239.396 277.501C238.373 277.501 237.633 276.835 237.633 275.441L237.633 271.976L238.471 271.976L238.471 275.385C238.471 276.181 238.969 276.691 239.665 276.691ZM95.3618 274.733C95.3618 275.827 95.872 276.791 96.9951 276.791C98.1157 276.791 98.6284 275.827 98.6284 274.733C98.6284 273.639 98.1157 272.658 96.9951 272.658C95.872 272.658 95.3618 273.639 95.3618 274.733ZM130.12 274.733C130.12 275.827 130.631 276.791 131.754 276.791C132.874 276.791 133.387 275.827 133.387 274.733C133.387 273.639 132.874 272.658 131.754 272.658C130.631 272.658 130.12 273.639 130.12 274.733ZM154.197 274.703C154.197 275.868 154.737 276.791 155.786 276.791C156.795 276.791 157.349 275.939 157.349 274.703C157.349 273.483 156.809 272.658 155.786 272.658C154.722 272.658 154.197 273.554 154.197 274.703ZM162.023 272.658C161.064 272.658 160.463 273.414 160.407 274.264L163.515 274.264C163.515 273.339 162.931 272.658 162.023 272.658ZM166.228 274.703C166.228 275.868 166.768 276.791 167.818 276.791C168.826 276.791 169.38 275.939 169.38 274.703C169.38 273.483 168.841 272.658 167.818 272.658C166.753 272.658 166.228 273.554 166.228 274.703ZM189.026 272.658C188.066 272.658 187.466 273.414 187.41 274.264L190.518 274.264C190.518 273.339 189.934 272.658 189.026 272.658ZM193.231 274.703C193.231 275.868 193.771 276.791 194.82 276.791C195.829 276.791 196.383 275.939 196.383 274.703C196.383 273.483 195.843 272.658 194.82 272.658C193.756 272.658 193.231 273.554 193.231 274.703ZM209.41 274.733C209.41 275.827 209.92 276.791 211.043 276.791C212.164 276.791 212.677 275.827 212.677 274.733C212.677 273.639 212.164 272.658 211.043 272.658C209.92 272.658 209.41 273.639 209.41 274.733ZM232.251 274.733C232.251 275.827 232.761 276.791 233.884 276.791C235.005 276.791 235.518 275.827 235.518 274.733C235.518 273.639 235.005 272.658 233.884 272.658C232.761 272.658 232.251 273.639 232.251 274.733ZM104.964 275.924C104.964 276.508 105.447 276.806 106.114 276.806C107.108 276.806 107.647 276.139 107.647 275.455L107.647 274.689C107.506 274.86 106.553 274.96 106.199 275.001C105.545 275.087 104.964 275.285 104.964 275.924ZM115.788 275.924C115.788 276.508 116.271 276.806 116.938 276.806C117.931 276.806 118.471 276.139 118.471 275.455L118.471 274.689C118.329 274.86 117.377 274.96 117.023 275.001C116.369 275.087 115.788 275.285 115.788 275.924ZM161.008 292.339L160.425 292.339L160.425 291.526C158.83 291.438 157.824 290.632 157.79 289.148L159.277 289.148C159.321 289.787 159.773 290.151 160.425 290.229L160.425 288.359L159.963 288.242C158.735 287.947 157.978 287.331 157.981 286.26C157.976 285.027 158.994 284.18 160.425 284.07L160.425 283.249L161.008 283.249L161.008 284.065C162.473 284.162 163.423 285.027 163.445 286.25L161.97 286.25C161.921 285.757 161.574 285.437 161.008 285.361L161.008 287.131L161.362 287.214C162.627 287.5 163.54 288.142 163.542 289.353C163.54 290.61 162.61 291.438 161.008 291.526L161.008 292.339ZM133.102 284.499C133.102 284.812 132.834 285.066 132.507 285.066C132.18 285.066 131.909 284.812 131.909 284.499C131.909 284.187 132.18 283.931 132.507 283.931C132.834 283.931 133.102 284.187 133.102 284.499ZM185.707 286.579C185.699 285.117 186.796 284.05 188.422 284.057C189.918 284.065 191.324 284.971 191.327 287.605C191.332 290.073 190.17 291.531 188.368 291.531C186.913 291.531 185.919 290.603 185.777 289.377L187.294 289.377C187.411 289.907 187.811 290.212 188.368 290.212C189.318 290.212 189.818 289.336 189.82 287.893L189.772 287.893C189.449 288.533 188.739 288.921 187.938 288.921C186.649 288.921 185.709 287.937 185.707 286.579ZM154.577 286.25L153.103 286.25C153.047 285.679 152.595 285.344 151.86 285.344C151.106 285.344 150.691 285.688 150.691 286.157C150.681 286.68 151.211 286.914 151.843 287.058L152.495 287.214C153.76 287.5 154.673 288.142 154.675 289.353C154.673 290.686 153.628 291.533 151.853 291.533C150.088 291.533 148.962 290.72 148.923 289.148L150.41 289.148C150.461 289.875 151.035 290.244 151.836 290.244C152.617 290.244 153.12 289.883 153.125 289.35C153.12 288.86 152.68 288.633 151.887 288.44L151.096 288.242C149.868 287.947 149.111 287.331 149.114 286.26C149.109 284.939 150.276 284.057 151.87 284.057C153.489 284.057 154.555 284.953 154.577 286.25ZM175.211 287.8C175.209 290.198 174.105 291.589 172.274 291.589C170.443 291.587 169.332 290.19 169.339 287.8C169.342 285.417 170.45 284.057 172.274 284.057C174.098 284.057 175.216 285.422 175.211 287.8ZM198.18 287.8C198.177 290.198 197.074 291.589 195.243 291.589C193.412 291.587 192.301 290.19 192.308 287.8C192.311 285.417 193.419 284.057 195.243 284.057C197.067 284.057 198.185 285.422 198.18 287.8ZM146.356 288.75L146.356 284.158L147.894 284.158L147.894 288.882C147.894 290.471 146.685 291.533 144.879 291.533C143.065 291.533 141.863 290.471 141.863 288.882L141.863 284.158L143.402 284.158L143.402 288.75C143.402 289.58 143.987 290.181 144.879 290.181C145.772 290.181 146.356 289.58 146.356 288.75ZM166.248 284.158L167.693 284.158L167.693 291.431L166.157 291.431L166.157 285.618L166.113 285.618L164.448 286.662L164.448 285.298L166.248 284.158ZM179.686 290.151L176.195 290.151L176.195 288.94L179.232 284.158L181.156 284.158L181.156 288.921L182.059 288.921L182.059 290.151L181.156 290.151L181.156 291.431L179.686 291.431L179.686 290.151ZM126.839 285.976L128.004 285.976L128.004 286.687L126.839 286.687L126.839 289.868C126.839 290.578 127.193 290.691 127.562 290.691C127.747 290.691 127.862 290.664 127.933 290.649L128.104 291.401C127.989 291.445 127.791 291.501 127.479 291.501C126.768 291.501 125.999 291.047 125.999 290.095L125.999 286.687L125.176 286.687L125.176 285.976L125.999 285.976L125.999 284.67L126.839 284.67L126.839 285.976ZM189.669 286.533C189.662 285.842 189.139 285.266 188.434 285.266C187.718 285.266 187.191 285.828 187.196 286.538C187.201 287.251 187.709 287.805 188.419 287.805C189.122 287.805 189.672 287.229 189.669 286.533ZM170.904 287.8C170.902 289.477 171.442 290.315 172.274 290.315C173.107 290.315 173.646 289.477 173.641 287.8C173.641 286.15 173.102 285.32 172.274 285.32C171.444 285.32 170.907 286.15 170.904 287.8ZM193.873 287.8C193.871 289.477 194.41 290.315 195.243 290.315C196.075 290.315 196.615 289.477 196.61 287.8C196.61 286.15 196.07 285.32 195.243 285.32C194.413 285.32 193.876 286.15 193.873 287.8ZM159.558 286.157C159.548 286.597 159.929 286.836 160.425 286.985L160.425 285.366C159.863 285.444 159.558 285.757 159.558 286.157ZM177.745 288.921L179.715 288.921L179.715 285.835L179.659 285.835L177.745 288.862L177.745 288.921ZM94.4238 290.691C94.2529 291.047 93.7549 291.557 92.8052 291.557C91.7676 291.557 90.9424 290.947 90.9424 289.883C90.9424 288.633 92.0483 288.408 93.0591 288.276C94.0552 288.149 94.4653 288.186 94.4653 287.781L94.4653 287.751C94.4653 287.053 94.0869 286.643 93.3154 286.643C92.5171 286.643 92.0801 287.07 91.8945 287.468L91.0986 287.182C91.5259 286.189 92.4634 285.906 93.2861 285.906C93.9844 285.906 95.3052 286.103 95.3052 287.837L95.3052 291.431L94.4653 291.431L94.4653 290.691L94.4238 290.691ZM101.198 289.839C101.057 290.806 100.261 291.545 99.0547 291.545C97.5191 291.545 96.5816 290.366 96.5816 288.733C96.5816 287.07 97.563 285.906 99.0401 285.906C100.19 285.906 101.057 286.587 101.198 287.61L100.361 287.61C100.234 287.112 99.792 286.658 99.0547 286.658C98.0733 286.658 97.4214 287.468 97.4214 288.703C97.4214 289.968 98.0611 290.791 99.0547 290.791C99.7066 290.791 100.205 290.437 100.361 289.839L101.198 289.839ZM106.781 289.839C106.639 290.806 105.843 291.545 104.637 291.545C103.101 291.545 102.164 290.366 102.164 288.733C102.164 287.07 103.145 285.906 104.622 285.906C105.772 285.906 106.639 286.587 106.781 287.61L105.943 287.61C105.816 287.112 105.374 286.658 104.637 286.658C103.656 286.658 103.004 287.468 103.004 288.703C103.004 289.968 103.643 290.791 104.637 290.791C105.289 290.791 105.787 290.437 105.943 289.839L106.781 289.839ZM112.69 288.733C112.69 290.422 111.697 291.545 110.22 291.545C108.742 291.545 107.746 290.422 107.746 288.733C107.746 287.026 108.742 285.906 110.22 285.906C111.697 285.906 112.69 287.026 112.69 288.733ZM122.01 286.658C121.206 286.658 120.616 287.197 120.616 288.149L120.616 291.431L119.778 291.431L119.778 285.976L120.589 285.976L120.589 286.828L120.66 286.828C120.916 286.274 121.426 285.906 122.251 285.906C123.355 285.906 124.097 286.572 124.097 287.964L124.097 291.431L123.26 291.431L123.26 288.022C123.26 287.165 122.786 286.658 122.01 286.658ZM136.383 285.906C137.464 285.906 138.053 286.423 138.316 287.197L137.562 287.41C137.418 287.034 137.115 286.628 136.383 286.628C135.716 286.628 135.218 286.97 135.218 287.439C135.218 287.859 135.511 288.074 136.156 288.235L136.966 288.432C137.94 288.672 138.414 289.15 138.414 289.91C138.414 290.852 137.552 291.545 136.285 291.545C135.169 291.545 134.405 291.05 134.21 290.124L135.006 289.924C135.155 290.51 135.584 290.806 136.27 290.806C137.052 290.806 137.55 290.422 137.55 289.953C137.55 289.578 137.288 289.314 136.739 289.187L135.831 288.972C134.828 288.738 134.381 288.235 134.381 287.483C134.381 286.557 135.233 285.906 136.383 285.906ZM116 290.691C116.625 290.691 117.406 290.222 117.406 289.202L117.406 285.976L118.244 285.976L118.244 291.431L117.406 291.431L117.406 290.508L117.35 290.508C117.094 291.062 116.554 291.501 115.731 291.501C114.708 291.501 113.969 290.835 113.969 289.441L113.969 285.976L114.806 285.976L114.806 289.385C114.806 290.181 115.304 290.691 116 290.691ZM132.917 291.431L132.079 291.431L132.079 285.976L132.917 285.976L132.917 291.431ZM108.586 288.733C108.586 289.827 109.096 290.791 110.22 290.791C111.34 290.791 111.853 289.827 111.853 288.733C111.853 287.639 111.34 286.658 110.22 286.658C109.096 286.658 108.586 287.639 108.586 288.733ZM161.008 288.508L161.008 290.222C161.611 290.141 161.987 289.807 161.992 289.35C161.987 288.913 161.64 288.686 161.008 288.508ZM91.7822 289.924C91.7822 290.508 92.2656 290.806 92.9321 290.806C93.9258 290.806 94.4653 290.139 94.4653 289.455L94.4653 288.689C94.3237 288.86 93.3716 288.96 93.0176 289.001C92.3633 289.087 91.7822 289.285 91.7822 289.924ZM184.702 290.671C184.697 291.142 184.304 291.523 183.847 291.523C183.378 291.523 182.993 291.142 182.995 290.671C182.993 290.205 183.378 289.827 183.847 289.827C184.304 289.827 184.697 290.205 184.702 290.671ZM200.702 290.847C200.702 291.199 200.413 291.487 200.062 291.487C199.71 291.487 199.425 291.199 199.425 290.847C199.425 290.495 199.71 290.21 200.062 290.21C200.413 290.21 200.702 290.495 200.702 290.847Z" fill="#36536B" fill-opacity="1.000000" fill-rule="evenodd"/>
	</g>
	<rect id="Group 29" width="218.000000" height="87.000000" transform="translate(74.432129 221.430542)" stroke="#979797" stroke-opacity="1.000000" stroke-width="1.000000"/>
</svg>
